<svg xmlns="http://www.w3.org/2000/svg" width="16" height="16" viewBox="0 0 16 16" fill="none">
  <path d="M12.3124 15C12.2072 15.0004 12.1045 14.9676 12.019 14.9062L7.99991 11.9925L3.98084 14.9062C3.89498 14.9685 3.79153 15.0019 3.68546 15.0015C3.57939 15.0011 3.47619 14.967 3.39078 14.9041C3.30537 14.8412 3.24218 14.7528 3.21034 14.6516C3.1785 14.5504 3.17966 14.4417 3.21366 14.3412L4.78116 9.69843L0.718657 6.91249C0.63066 6.85221 0.564246 6.76537 0.529117 6.66466C0.493988 6.56395 0.491985 6.45464 0.523402 6.35271C0.554819 6.25078 0.618008 6.16157 0.703738 6.09811C0.789468 6.03465 0.893245 6.00027 0.999907 5.99999H6.01178L7.52428 1.3453C7.55686 1.24481 7.62044 1.15722 7.70589 1.0951C7.79134 1.03297 7.89426 0.999512 7.99991 0.999512C8.10555 0.999512 8.20848 1.03297 8.29393 1.0951C8.37937 1.15722 8.44295 1.24481 8.47553 1.3453L9.98803 6.00155H14.9999C15.1067 6.0015 15.2107 6.03564 15.2967 6.09898C15.3827 6.16232 15.4461 6.25152 15.4777 6.35353C15.5094 6.45554 15.5075 6.56499 15.4724 6.66586C15.4373 6.76672 15.3708 6.8537 15.2827 6.91405L11.2187 9.69843L12.7852 14.34C12.8106 14.4151 12.8177 14.4952 12.806 14.5737C12.7944 14.6521 12.7642 14.7267 12.718 14.7912C12.6718 14.8557 12.6109 14.9082 12.5404 14.9445C12.4699 14.9808 12.3917 14.9998 12.3124 15Z" fill="#FFC23D"/>
</svg>