<svg width="144" height="144" viewBox="0 0 144 144" fill="none" xmlns="http://www.w3.org/2000/svg">
<mask id="mask0_29267_12471" style="mask-type:alpha" maskUnits="userSpaceOnUse" x="0" y="0" width="144" height="144">
<path d="M144 72C144 111.765 111.765 144 72 144C32.2355 144 0 111.765 0 72C0 32.2355 32.2355 0 72 0C111.765 0 144 32.2355 144 72Z" fill="#70ACDE"/>
</mask>
<g mask="url(#mask0_29267_12471)">
<circle cx="71.8468" cy="72.1701" r="72.0002" fill="#70ACDE"/>
<circle cx="71.8468" cy="72.1701" r="72.0002" fill="url(#paint0_linear_29267_12471)" fill-opacity="0.2"/>
<path d="M-0.935658 6.96349C17.7293 -9.34163 44.3028 -9.46077 58.4179 6.69713C68.8729 18.6654 69.5596 36.2067 61.6279 51.1251C61.4859 51.3922 61.5272 51.7203 61.7262 51.9481C68.6959 59.9265 66.8746 72.921 57.6583 80.9721C48.4421 89.0231 35.3208 89.082 28.3512 81.1036C26.5247 79.0128 23.9024 77.5462 21.1308 77.7089C9.54069 78.3888 -1.6069 74.4053 -9.17394 65.743C-23.2889 49.5851 -19.6005 23.2686 -0.935658 6.96349Z" fill="#99E587"/>
<path d="M105.425 19.5247C113.741 17.7354 121.739 22.1213 123.288 29.3209C124.837 36.5205 119.351 43.8076 111.034 45.597C109.783 45.8661 108.54 45.9955 107.324 45.9967C104.599 45.9993 101.843 46.6293 99.2554 47.4852C95.3552 48.7753 91.1784 47.9602 88.6193 45.0308C85.0469 40.9414 85.9803 34.2806 90.7043 30.1539C90.9067 29.977 91.1129 29.8077 91.3223 29.646C93.0066 28.3449 94.5929 26.8545 95.9352 25.2028C98.1578 22.4679 101.471 20.3753 105.425 19.5247Z" fill="#99E587"/>
<path d="M91.7047 77.473C101.652 75.3328 111.475 81.773 113.645 91.8578C113.646 91.8643 113.65 91.87 113.656 91.8734C117.382 94.0864 120.133 97.588 121.061 101.898C122.488 108.533 119.187 115.201 113.257 119.028C113.229 119.047 113.232 119.089 113.263 119.103C113.295 119.116 113.314 119.15 113.284 119.168C111.819 120.036 81.0143 138.007 63.9403 124.103C60.8547 121.888 58.6083 118.709 57.7884 114.898C55.8828 106.042 62.402 97.127 72.3492 94.9867C72.3699 94.9822 72.3906 94.9778 72.4114 94.9734C75.0535 94.4132 77.2848 92.3456 78.126 89.7791C80.1068 83.7352 85.1037 78.8933 91.7047 77.473Z" fill="#99E587"/>
<path d="M53.251 46.0938C53.251 48.0958 51.628 49.7188 49.626 49.7188C47.6239 49.7188 46.001 48.0958 46.001 46.0938C46.001 44.0917 47.6239 42.4688 49.626 42.4688C51.628 42.4688 53.251 44.0917 53.251 46.0938Z" fill="#202020"/>
<path d="M77.499 46.0938C77.499 48.0958 75.8761 49.7188 73.874 49.7188C71.872 49.7188 70.249 48.0958 70.249 46.0938C70.249 44.0917 71.872 42.4688 73.874 42.4688C75.8761 42.4688 77.499 44.0917 77.499 46.0938Z" fill="#202020"/>
<path d="M68.3502 54.266C69.5979 53.6563 71.1179 54.126 71.7977 55.3549C72.4775 56.5838 72.0676 58.121 70.888 58.8539L70.7713 58.9223C62.4761 63.5109 54.5071 60.9897 51.2176 58.9208L51.0645 58.8227L50.9532 58.7458C49.8308 57.928 49.5352 56.3646 50.3036 55.1891C51.0721 54.0136 52.623 53.657 53.8224 54.3571L53.9371 54.4281L54.034 54.4902C56.1289 55.8024 62.0225 57.7625 68.2303 54.3285L68.3502 54.266Z" fill="#202020"/>
</g>
<defs>
<linearGradient id="paint0_linear_29267_12471" x1="60.7762" y1="33.8415" x2="114.49" y2="127.641" gradientUnits="userSpaceOnUse">
<stop stop-color="white"/>
<stop offset="1" stop-color="#2887D7"/>
</linearGradient>
</defs>
</svg>
